<svg width="24" height="24" viewBox="0 0 24 24" fill="CurrentColor" xmlns="http://www.w3.org/2000/svg">
<path d="M18.3538 17.646C18.5488 17.841 18.5488 18.158 18.3538 18.353C18.2558 18.451 18.1278 18.499 17.9998 18.499C17.8718 18.499 17.7438 18.45 17.6458 18.353L11.9998 12.707L6.35377 18.353C6.25577 18.451 6.12777 18.499 5.99977 18.499C5.87177 18.499 5.74376 18.45 5.64576 18.353C5.45076 18.158 5.45076 17.841 5.64576 17.646L11.2918 12L5.64576 6.35401C5.45076 6.15901 5.45076 5.84198 5.64576 5.64698C5.84076 5.45198 6.15776 5.45198 6.35276 5.64698L11.9988 11.293L17.6448 5.64698C17.8398 5.45198 18.1568 5.45198 18.3518 5.64698C18.5468 5.84198 18.5468 6.15901 18.3518 6.35401L12.7068 12L18.3538 17.646Z"/>
</svg>
