<svg width="220" height="26" viewBox="0 0 220 26" fill="none" xmlns="http://www.w3.org/2000/svg">
<path d="M23.416 0.52L14.992 10.384L25.216 25H17.548L10.852 14.884L6.64 19.492V25H0.736V0.52H6.64V11.284L16 0.52H23.416ZM39.2267 0.0879989C46.1748 0.0879989 51.8628 5.812 51.8628 12.76C51.8628 19.744 46.1748 25.432 39.2267 25.432C32.2067 25.432 26.5907 19.744 26.5907 12.76C26.5907 5.812 32.2067 0.0879989 39.2267 0.0879989ZM39.2267 5.596C35.2307 5.596 31.9907 8.8 31.9907 12.76C31.9907 16.756 35.2307 19.96 39.2267 19.96C43.1507 19.96 46.3907 16.756 46.3907 12.76C46.3907 8.8 43.1507 5.596 39.2267 5.596ZM65.6732 0.0879989C72.0452 0.0879989 75.4293 4.444 75.4293 8.26H69.5612C69.5612 7.036 68.1212 5.38 65.6012 5.38C63.8372 5.38 61.6772 6.172 61.6772 7.576C61.6772 8.764 63.2972 9.232 66.7532 10.132C70.6052 11.14 76.0412 12.436 76.0412 17.836C76.0412 22.516 71.9373 25.432 66.2132 25.432C58.5452 25.432 55.3412 20.248 55.3412 16.432H61.2092C61.2092 16.432 61.6772 20.32 66.5372 20.32C69.1652 20.32 70.1372 19.204 70.1372 18.16C70.1372 16.612 68.0852 16.072 65.8172 15.532C62.1452 14.668 55.7012 13.3 55.7012 7.864C55.7012 3.4 60.0932 0.0879989 65.6732 0.0879989ZM111.252 0.52V25H105.312V12.508L99.4435 25H92.8555L86.9875 12.508V25H81.0835V0.52H87.6355L96.1675 18.484L104.664 0.52H111.252ZM128.469 0.0879989C135.417 0.0879989 141.105 5.812 141.105 12.76C141.105 19.744 135.417 25.432 128.469 25.432C121.449 25.432 115.833 19.744 115.833 12.76C115.833 5.812 121.449 0.0879989 128.469 0.0879989ZM128.469 5.596C124.473 5.596 121.233 8.8 121.233 12.76C121.233 16.756 124.473 19.96 128.469 19.96C132.393 19.96 135.633 16.756 135.633 12.76C135.633 8.8 132.393 5.596 128.469 5.596ZM166.322 0.52V5.992H157.646V25H151.67V5.992H142.994V0.52H166.322ZM171.064 0.52H189.82V5.992H176.968V10.204H187.696V15.316H176.968V19.528H189.82V25H171.064V0.52ZM218.018 0.52L209.594 10.384L219.818 25H212.15L205.454 14.884L201.242 19.492V25H195.338V0.52H201.242V11.284L210.602 0.52H218.018Z" fill="#1A1A1A"/>
</svg>
