<svg width="102" height="102" viewBox="0 0 102 102" fill="none" xmlns="http://www.w3.org/2000/svg">
<g clip-path="url(#clip0_759_1293)">
<path d="M23.9018 102H21.7098C19.8291 101.452 18.5123 100.132 17.1822 98.7915C12.5215 94.093 7.84225 89.4106 3.13903 84.7548C1.81425 83.4431 0.545339 82.1289 0 80.2905V78.1009C0.457553 76.3317 1.59079 75.0334 2.85439 73.7723C26.6205 50.0328 50.3707 26.2774 74.1236 2.52724C74.4508 2.2 74.7753 1.86478 75.1238 1.55882C77.4914 -0.521674 80.9284 -0.55094 83.1656 1.65992C88.9302 7.34803 94.6576 13.0734 100.345 18.8387C102.524 21.0469 102.524 24.4549 100.507 26.8095C100.076 27.3123 99.5923 27.7699 99.1214 28.2381C75.5095 51.8499 51.895 75.4564 28.2965 99.0788C27.0142 100.364 25.6975 101.526 23.8965 101.997L23.9018 102ZM65.1614 38.481C64.765 38.4278 64.5389 38.4065 64.3128 38.3666C61.4451 37.8478 58.5774 37.329 55.7124 36.8049C54.9729 36.6692 54.385 36.9033 54.0338 37.5605C53.6774 38.2256 53.837 38.8455 54.3637 39.3723C57.1276 42.1392 59.8862 44.914 62.6688 47.665C63.3605 48.3487 64.1798 48.3407 64.7996 47.7448C65.4407 47.1302 65.4434 46.2709 64.7331 45.5392C63.3684 44.1372 61.9718 42.7697 60.5912 41.3836C60.397 41.1894 60.2267 40.9712 59.9075 40.612C60.7082 40.7557 61.2908 40.8568 61.8734 40.9632C64.1532 41.3836 66.4303 41.8093 68.7128 42.2216C69.5427 42.3706 70.3381 42.3121 70.7957 41.474C71.2133 40.7078 71.0271 39.9842 70.4259 39.3909C67.7125 36.7118 64.9991 34.0353 62.2618 31.3828C61.5755 30.7177 60.7322 30.747 60.1283 31.3456C59.5191 31.9468 59.5484 32.8408 60.2347 33.5538C60.8572 34.1976 61.5143 34.8042 62.1474 35.4374C63.121 36.4111 64.084 37.3955 65.1614 38.4863V38.481ZM23.2634 71.3087C19.1374 71.3034 15.7829 74.629 15.7696 78.7394C15.759 82.8259 19.1374 86.2207 23.2288 86.2287C27.3441 86.2366 30.6853 82.8977 30.6906 78.7713C30.696 74.621 27.4053 71.314 23.2607 71.3087H23.2634ZM51.4401 52.4592C52.6771 54.4785 52.4005 56.2557 50.8017 57.4715C49.2854 58.6208 47.6281 58.7485 45.9389 57.8919C44.2949 57.0591 43.433 55.3325 43.6165 53.409C43.7814 51.6743 45.0557 50.1924 46.8566 49.6417C48.067 49.2719 48.5964 48.5828 48.3463 47.7022C48.0803 46.7604 47.2264 46.4305 45.9814 46.7897C41.8262 47.9896 39.565 52.4405 41.0414 56.5111C42.0656 59.3339 44.7391 61.2946 47.6946 61.3877C50.815 61.4888 53.6082 59.8101 54.7547 57.1496C55.8082 54.7046 55.0926 51.6397 52.9591 49.4741C52.0892 48.5908 51.3656 48.5695 50.4718 49.4315C49.7323 50.1445 49.0034 50.8735 48.2878 51.6131C47.527 52.4006 47.4844 53.2547 48.1415 53.8932C48.7986 54.5317 49.6232 54.4731 50.4186 53.683C50.7698 53.3345 51.0571 52.9221 51.4428 52.4565L51.4401 52.4592ZM35.7955 68.4699C35.8913 68.1693 35.9498 67.9884 36.0084 67.8048C36.708 65.5275 36.0137 63.447 34.1781 62.3162C32.3586 61.1962 30.0894 61.4702 28.4135 63.0399C27.7112 63.697 27.0408 64.3861 26.3705 65.0778C25.4235 66.0542 25.4261 66.738 26.4051 67.7197C29.0254 70.3536 31.6536 72.9795 34.2846 75.6C35.1278 76.4408 35.9605 76.5365 36.6362 75.9007C37.3278 75.2515 37.2374 74.3496 36.3834 73.477C35.7556 72.8331 35.1145 72.2026 34.3218 71.4071C35.4683 71.4656 36.3276 71.5002 37.1868 71.5534C38.0487 71.604 38.9053 71.6918 39.7672 71.7237C40.967 71.7689 41.6214 71.2661 41.6559 70.3243C41.6905 69.3745 41.0654 68.8158 39.8976 68.7413C38.5754 68.6588 37.2533 68.5684 35.7929 68.4699H35.7955ZM68.8671 23.4839C67.4758 23.4865 66.5926 24.6624 67.0954 25.8224C68.7819 29.7067 70.5244 33.5644 72.2774 37.4168C72.6631 38.2628 73.525 38.5262 74.2726 38.1591C74.9855 37.8079 75.4191 36.9406 74.9429 36.2355C73.8655 34.6472 74.4774 33.5963 75.7809 32.6386C75.8873 32.5614 75.9857 32.463 76.0602 32.3592C77.0312 31.0077 78.0926 30.4171 79.7313 31.4813C80.5639 32.024 81.5881 31.3669 81.745 30.4091C81.8674 29.6615 81.5482 29.0948 80.8778 28.7915C77.0844 27.0622 73.2856 25.3515 69.4816 23.6435C69.2475 23.5371 68.9735 23.5131 68.8644 23.4865L68.8671 23.4839ZM84.2031 24.2607C83.8439 23.8297 83.6285 23.5317 83.3731 23.2763C81.2449 21.1373 79.1168 18.9983 76.97 16.8752C76.2517 16.1649 75.3712 16.125 74.7594 16.7076C74.1023 17.3328 74.1209 18.2267 74.8711 18.985C77.5818 21.7146 80.3006 24.4363 83.0326 27.1447C83.836 27.9402 84.5542 27.9375 85.3842 27.1553C86.3232 26.2667 87.2357 25.3489 88.1268 24.4124C88.8185 23.6861 88.8212 22.8054 88.2013 22.2042C87.5629 21.5843 86.7489 21.6135 85.9987 22.3425C85.4294 22.8932 84.9133 23.4998 84.2004 24.2634L84.2031 24.2607ZM61.5515 50.6101C61.1685 50.0621 60.929 49.5885 60.5752 49.2293C58.5083 47.1276 56.4147 45.0497 54.3264 42.9666C53.6694 42.3121 53.0362 41.6283 52.334 41.0244C51.6902 40.471 50.9666 40.5163 50.3681 41.1175C49.7722 41.7188 49.7855 42.4158 50.2643 43.0996C50.3574 43.2353 50.4825 43.3497 50.5995 43.4667C53.2464 46.1166 55.8933 48.7638 58.5428 51.4083C58.7051 51.5706 58.8807 51.81 59.0749 51.8366C59.5723 51.9058 60.1576 52.0335 60.5646 51.8366C60.9663 51.6424 61.1924 51.0837 61.5515 50.6075V50.6101ZM35.5455 56.1865C35.0986 56.5856 34.4681 56.8835 34.3697 57.3066C34.25 57.8254 34.3856 58.6288 34.7394 58.996C37.4262 61.7895 40.1849 64.5165 42.9382 67.2461C43.6511 67.9511 44.5423 67.9804 45.1488 67.3924C45.8032 66.7593 45.7819 65.8866 45.0158 65.1151C42.3104 62.3854 39.5916 59.6691 36.8543 56.9687C36.5457 56.6654 36.0908 56.5058 35.5455 56.1865Z" fill="black"/>
<path d="M0 47.7881C0.261091 45.8887 0.442256 43.9733 0.793929 42.0899C3.45546 27.8391 10.8299 16.6235 22.8454 8.52049C31.7865 2.48975 41.7452 -0.234317 52.5192 0.015744C56.8911 0.116833 61.1778 0.816472 65.3819 2.02155C65.5604 2.0721 65.7282 2.17053 66 2.29024C64.6253 3.66025 63.3065 4.96643 61.9957 6.27526C59.574 8.69074 57.1655 11.1249 54.7145 13.5084C54.4108 13.8037 53.8513 14.0139 53.4303 13.9819C38.5455 12.8912 23.8365 21.5849 17.4904 35.2345C14.8049 41.0072 13.6593 47.0619 14.0323 53.4118C14.0509 53.7364 13.9763 54.1806 13.7685 54.3908C9.98539 58.2109 6.17559 62.0043 2.17132 66C1.68377 63.8559 1.17757 61.9192 0.817907 59.9586C0.466233 58.0406 0.266419 56.0933 0 54.162C0 52.0365 0 49.9136 0 47.7881Z" fill="black"/>
<path d="M47.974 101.997C45.9713 101.731 43.9552 101.531 41.9657 101.177C40.0135 100.828 38.088 100.324 36 99.8528C36.2876 99.5172 36.4341 99.3147 36.6099 99.1416C40.1547 95.5905 43.6968 92.0341 47.2683 88.5123C47.5745 88.2086 48.1179 87.9529 48.5307 87.9822C63.5648 88.9732 77.9251 80.5843 84.4128 66.9581C87.1959 61.1133 88.3731 54.9515 87.9869 48.4834C87.9656 48.1371 88.1015 47.6762 88.3385 47.4391C92.0298 43.7042 95.7477 39.9986 99.4629 36.2877C99.5295 36.2211 99.6227 36.1785 99.8971 36C100.408 38.3789 101.034 40.646 101.373 42.9556C103.423 56.9149 100.478 69.7419 92.091 81.1144C83.723 92.4656 72.4548 99.2401 58.4833 101.427C57.0451 101.651 55.599 101.811 54.1555 102H47.974V101.997Z" fill="black"/>
<path d="M20 47C20.8428 33.7456 32.7294 21.1137 47 20C38.0333 28.9676 28.9405 38.0613 20 47Z" fill="black"/>
<path d="M54.0027 81.9597C63.2758 72.699 72.6055 63.3845 82 54C81.1825 61.291 78.2444 67.5555 73.1343 72.7934C68.0189 78.0393 58.6217 82.4716 54 81.9597H54.0027Z" fill="black"/>
<path d="M27.9998 78.5442C27.9784 80.9955 25.98 82.9866 23.5293 82.9999C21.0707 83.0133 18.9947 80.9393 19 78.4772C19.0054 75.9965 21.044 73.9867 23.5481 74.0001C26.0629 74.0108 28.0212 76.0125 27.9998 78.5442Z" fill="black"/>
<path d="M29 66.6391C29.7844 65.929 30.3651 64.7419 31.7604 65.05C32.2228 65.1519 32.8118 65.6718 32.9301 66.1059C33.3072 67.5047 32.0742 68.1157 31.2485 69C30.4752 68.188 29.7596 67.4377 29 66.6391Z" fill="black"/>
<path d="M75 29.8158C74.1917 30.6092 73.5162 31.2719 72.7729 32C72.2212 30.7548 71.6696 29.5097 71 28C72.4926 28.6776 73.708 29.2303 75 29.8158Z" fill="black"/>
</g>
<defs>
<clipPath id="clip0_759_1293">
<rect width="102" height="102" fill="white"/>
</clipPath>
</defs>
</svg>
