<svg width="80" height="107" viewBox="0 0 80 107" fill="none" xmlns="http://www.w3.org/2000/svg">
<path d="M39.3767 107C38.7191 106.445 38.0172 105.935 37.4066 105.33C27.8011 95.7932 19.1507 85.4684 11.9511 73.9763C7.64289 67.0958 3.98701 59.8854 1.75591 52.0155C-1.2737 41.3217 -0.462149 30.9786 4.80899 21.1642C9.49039 12.4489 16.5255 6.26714 25.7709 2.69207C31.6657 0.412496 37.7693 -0.461644 44.0529 0.231911C52.5363 1.16886 60.0229 4.42988 66.4422 10.1066C71.9613 14.9876 75.852 20.9574 78.0909 27.9636C80.1263 34.3365 80.5412 40.8428 79.3017 47.4486C77.8587 55.1326 74.8082 62.1964 71.0088 68.9461C63.2169 82.7884 53.1678 94.8667 41.9236 105.99C41.5348 106.374 41.0598 106.665 40.6241 107H39.3741H39.3767ZM39.9952 62.4267C52.1788 62.4398 62.1627 52.4448 62.2305 40.1649C62.2984 27.9819 52.3458 17.9581 40.0604 17.8377C27.9211 17.7173 17.7311 27.9217 17.7729 40.1518C17.8146 52.4134 27.7933 62.4136 39.9952 62.4267Z" fill="black"/>
</svg>
