<svg width="108" height="126" viewBox="0 0 108 126" fill="none" xmlns="http://www.w3.org/2000/svg">
<g clip-path="url(#clip0_759_1711)">
<path d="M39.9723 105.995C38.1109 105.995 36.404 105.995 34.6971 105.995C29.0407 105.995 23.3877 106.019 17.7312 105.961C17.1062 105.954 16.306 105.619 15.887 105.158C11.2952 100.112 6.76523 95.0045 2.20779 89.9245C0.799696 88.3564 0.0166557 86.5505 0.0132213 84.4344C0.00635257 75.3186 -0.0176881 66.2063 0.0235245 57.0906C0.037262 54.1095 2.22497 51.9727 5.03086 52.0003C7.70968 52.0244 9.87678 54.2301 9.90082 57.132C9.95234 62.7634 9.91799 68.3948 9.91799 74.0262C9.91799 74.2296 9.86648 74.4364 9.83557 74.6673C9.24142 74.7707 8.68505 74.8155 8.16302 74.9637C3.94216 76.1492 2.58214 81.3223 5.68683 84.5516C8.5408 87.5224 11.4909 90.4001 14.3964 93.3192C15.0009 93.9258 15.5985 94.5461 16.2167 95.1389C17.3191 96.2004 18.528 96.29 19.3763 95.3974C20.2005 94.5323 20.1044 93.3916 19.0569 92.3335C16.0381 89.2835 12.978 86.2748 9.99355 83.1902C9.39597 82.5733 8.88768 81.7427 8.66101 80.919C8.31413 79.6611 9.08687 78.3239 10.2443 77.6794C11.4016 77.0384 12.8304 77.1762 13.9362 78.1688C16.4227 80.4055 18.9023 82.656 21.3133 84.9789C22.2028 85.8371 23.106 86.1886 24.3527 86.2162C32.894 86.4023 39.5018 92.8781 39.962 101.446C40.041 102.897 39.9723 104.355 39.9723 105.985V105.995Z" fill="black"/>
<path d="M68.1854 105.976C66.8368 95.6037 72.9211 86.4756 83.9745 86.1827C84.9834 86.1551 85.728 85.9036 86.4624 85.2006C88.844 82.916 91.2908 80.7003 93.7272 78.4708C95.3401 76.996 97.2344 76.9202 98.5213 78.24C99.8562 79.6149 99.7121 81.517 98.1095 83.1365C95.0347 86.2447 91.9428 89.3425 88.8543 92.4369C88.1062 93.1881 87.8351 94.0289 88.3738 94.9938C88.8543 95.8518 89.6573 96.1654 90.5632 95.9069C91.0643 95.7622 91.5378 95.3832 91.9222 95.0041C95.2989 91.6478 98.6482 88.2674 102.011 84.9008C103.837 83.0745 104.592 80.9381 103.648 78.4502C102.732 76.0346 100.855 74.8527 98.2261 74.7045C98.1781 74.4392 98.0854 74.1566 98.0854 73.8775C98.0786 68.3331 98.0477 62.7921 98.0957 57.2477C98.1232 54.0086 100.477 51.7826 103.473 52.0169C105.892 52.2064 107.814 54.0879 107.934 56.531C108.027 58.4159 107.979 60.3111 107.979 62.2029C107.979 69.3358 107.941 76.4688 108 83.6017C108.024 86.2447 107.183 88.4225 105.409 90.3694C100.992 95.2212 96.6373 100.132 92.2894 105.045C91.706 105.707 91.1192 106.007 90.2132 106C83.2813 105.962 76.3493 105.979 69.4174 105.979H68.182L68.1854 105.976Z" fill="black"/>
<path d="M62 72H46V18H62V72Z" fill="black"/>
<path d="M18.0574 38H42V71.9103C41.6272 71.9413 41.2958 71.993 40.9644 71.993C34.8062 71.9965 28.6479 72.0068 22.4932 71.993C19.7109 71.9861 18.0195 70.3651 18.0126 67.6163C17.9918 58.0213 18.0022 48.4297 18.0057 38.8346C18.0057 38.5829 18.0367 38.3311 18.0574 38Z" fill="black"/>
<path d="M66 38H90C90 38.5207 90 38.9828 90 39.4414C90 48.6448 90 57.8517 90 67.0552C90 70.5069 88.5011 71.9966 85.0404 72C79.1829 72 73.3219 72 67.4644 72C67.0016 72 66.5388 72 66.0035 72V38H66Z" fill="black"/>
<path d="M42 18.0922V34H40.5292C32.053 34 23.5769 34 15.1007 34C12.5251 34 12.0037 33.4735 12.0037 30.9065C12.0037 27.4346 11.9934 23.9592 12.0072 20.4872C12.0141 18.7529 12.6977 18.0131 14.4033 18.0097C23.3525 17.9925 32.3016 18.0028 41.2508 18.0062C41.4614 18.0062 41.6686 18.0544 42 18.0922Z" fill="black"/>
<path d="M66 33.8872V18C66.5077 18 66.9291 18 67.3504 18C75.9159 18 84.4813 18 93.0433 18C95.4437 18 95.9928 18.561 95.9963 20.9702C95.9963 24.4877 96.0066 28.0052 95.9928 31.5192C95.9859 33.1954 95.3159 33.9801 93.7064 33.9835C84.6678 34.0111 75.6292 33.9973 66.5906 33.9904C66.4248 33.9904 66.259 33.9319 66 33.8837V33.8872Z" fill="black"/>
<path d="M45.9965 118H10V110H46V118H45.9965Z" fill="black"/>
<path d="M62.0069 118C62.0069 115.491 62.0069 113.088 62.0069 110.685C62.0069 110.478 62.0518 110.271 62.0829 110H98V118H62H62.0069Z" fill="black"/>
<path d="M53.9636 3.91374C54.704 3.23964 55.3548 2.55867 56.0918 1.99463C59.4975 -0.598561 64.236 -0.653589 67.7554 1.82267C71.3196 4.33332 72.8451 8.87314 71.5365 12.9762C71.3162 13.6675 71.0269 14.0526 70.2039 13.9942C69.064 13.9151 67.9104 13.9735 66.9462 13.9735C67.294 12.5428 67.8759 11.1706 67.9138 9.78798C67.9999 6.61355 65.2794 4.02723 62.0837 3.97564C58.9087 3.92405 56.1744 6.45534 56.0436 9.61945C55.985 11.0227 56.0332 12.4259 56.0332 13.9013H51.9697C51.9697 12.5703 51.9973 11.2187 51.9628 9.86708C51.8836 6.76488 49.628 4.33332 46.5494 3.99628C43.7532 3.68675 41.0155 5.59553 40.2234 8.39852C39.7517 10.07 40.034 11.5214 41.3874 13.9667C39.9445 13.9667 38.6015 14.0251 37.2757 13.922C36.983 13.8979 36.6179 13.3407 36.4905 12.959C35.0442 8.59456 36.8797 3.81744 40.8984 1.39964C44.8035 -0.949365 49.8794 -0.289029 53.0855 2.98514C53.3782 3.28435 53.6606 3.59389 53.9567 3.90686L53.9636 3.91374Z" fill="black"/>
<path d="M10 122H46V126H10V122Z" fill="black"/>
<path d="M62 126V122H98V126H62Z" fill="black"/>
</g>
<defs>
<clipPath id="clip0_759_1711">
<rect width="108" height="126" fill="white"/>
</clipPath>
</defs>
</svg>
