<svg width="119" height="129" viewBox="0 0 119 129" fill="none" xmlns="http://www.w3.org/2000/svg">
<g clip-path="url(#clip0_759_2484)">
<path d="M92.9946 129C90.8882 128.423 88.707 128.026 86.6856 127.232C76.799 123.353 70.9452 113.319 72.1581 102.539C73.2962 92.4267 81.5588 83.8891 91.7545 82.2875C104.576 80.2752 116.811 89.0504 118.71 101.616C120.731 114.999 111.993 126.825 98.6513 128.773C98.4543 128.8 98.2742 128.919 98.084 128.997H92.9946V129ZM89.6379 107.042C88.1533 105.525 86.7807 104.093 85.3742 102.692C84.1647 101.487 83.2915 101.477 82.1058 102.637C80.7163 104.001 79.3369 105.379 77.9745 106.767C76.8704 107.894 76.8602 108.81 77.9881 109.943C81.3312 113.306 84.6879 116.658 88.0547 119.998C89.2472 121.182 90.1204 121.178 91.3265 119.981C98.5562 112.777 105.776 105.566 112.989 98.3481C114.225 97.1095 114.201 96.2544 112.948 94.9819C111.759 93.7773 110.553 92.5862 109.353 91.3918C107.641 89.6883 106.999 89.6917 105.27 91.4223C100.119 96.57 94.9685 101.718 89.6413 107.038L89.6379 107.042Z" fill="black"/>
<path d="M53 112H31.4456C31.4456 111.468 31.4456 110.986 31.4456 110.5C31.4456 100.309 31.4523 90.1221 31.4556 79.9314C31.4556 79.5966 31.469 79.2618 31.4556 78.9304C31.3721 77.0389 29.9757 76.212 28.3755 77.2096C25.9367 78.7295 23.5782 80.3767 21.1628 81.9334C18.6105 83.5805 16.125 85.3682 13.4391 86.7676C9.16293 89.0006 6.51707 87.9963 5.07387 83.3863C3.97477 79.8678 3.39683 76.1718 2.7554 72.5227C1.78659 67.0189 0.90798 61.4984 0.122909 55.9645C-0.0875575 54.4714 -0.0207429 52.8711 0.269901 51.3914C0.600633 49.7041 1.75653 48.4855 3.51709 48.1139C5.31106 47.7323 6.93132 48.3148 7.94022 49.7845C8.81549 51.06 9.50368 52.543 9.93464 54.0328C11.2041 58.4385 12.2999 62.8911 13.4691 67.3236C14.017 69.3992 15.4836 69.8043 17.0437 68.3346C19.9602 65.5928 22.8599 62.8308 25.8131 60.1325C27.9378 58.1908 30.4735 57.3404 33.3665 57.3739C36.1159 57.4041 38.8654 57.2367 41.6148 57.2233C42.0391 57.2233 42.5903 57.461 42.8642 57.7757C44.8854 60.1091 46.833 62.5061 48.8508 64.8395C49.3352 65.3986 49.3052 65.7836 48.9143 66.3527C47.588 68.2744 46.2952 70.2194 45.0123 72.1712C44.1304 73.517 44.2506 74.6419 45.7239 75.2612C48.5134 76.4296 48.8876 78.2006 48.2996 81.0194C47.0101 87.1794 46.1515 93.4264 45.0691 99.6332C44.8453 100.912 45.0324 101.943 45.8842 102.984C48.2562 105.88 50.5279 108.853 52.9967 111.997L53 112Z" fill="black"/>
<path d="M69.3585 112H59C59.3089 111.539 59.5204 111.196 59.7588 110.87C61.7835 108.096 63.8619 105.359 65.8027 102.525C66.2425 101.883 66.4742 100.871 66.35 100.101C65.2084 92.9053 63.9929 85.72 62.7405 78.5415C62.5524 77.4723 62.7505 76.8132 63.7679 76.3593C64.4126 76.0735 64.9868 75.6297 65.5844 75.243C67.1223 74.2545 67.3136 73.424 66.3198 71.9143C65.1681 70.1659 64.0265 68.4074 62.8177 66.6994C62.3711 66.0672 62.4081 65.6772 62.9151 65.0922C65.0271 62.6545 67.0652 60.1495 69.1671 57.7018C69.4592 57.3622 69.983 56.9654 70.3624 57.0024C74.1869 57.3756 78.0482 57.6009 81.8122 58.3204C87.2416 59.3628 90.6228 62.826 91.6704 68.2729C92.3218 71.6655 92.5904 75.1287 93 78.3028C89.2562 79.4964 85.8951 80.5656 82.3863 81.6819C82.3863 80.764 82.3863 79.6275 82.3863 78.491C82.3863 77.9463 82.4031 77.3983 82.3763 76.857C82.3158 75.6768 81.6745 74.9976 80.6235 74.964C79.5256 74.927 78.7634 75.6129 78.7298 76.8435C78.6727 79.0223 78.6694 81.2044 78.7197 83.3832C78.7399 84.2574 78.4444 84.8189 77.7964 85.4174C70.3658 92.3001 67.5252 100.77 69.1906 110.759C69.2309 111.008 69.2779 111.254 69.3148 111.502C69.3316 111.627 69.335 111.751 69.3551 111.993L69.3585 112Z" fill="black"/>
<path d="M38.0147 18.5455C46.3413 20.8636 53.9523 19.0447 61.6477 17C63.5649 23.681 68.3576 26.707 75 27.6267C74.7097 28.991 74.4903 30.3108 74.1494 31.5998C71.2974 42.3564 60.3517 48.5212 50.3679 45.0131C43.3542 42.5513 38.1328 35.2822 38.0214 27.7601C37.9775 24.741 38.0147 21.7184 38.0147 18.542V18.5455Z" fill="black"/>
<path d="M4 15.5467C4.21817 12.7723 4.4661 9.99792 4.6446 7.22355C4.75038 5.62295 5.45779 4.35247 6.59493 3.32209C9.02127 1.12126 11.8575 -0.0358346 15.1499 0.000845833C16.2309 0.0141842 16.9416 0.410999 17.2391 1.52475C18.1217 4.82265 17.9399 8.05052 16.4391 11.1117C16.0755 11.8553 15.2326 12.4155 14.5119 12.9123C13.8078 13.3992 12.9418 13.6426 12.2046 14.0894C9.49397 15.7267 7.95024 18.0676 8.46922 21.3388C8.99482 24.6534 9.55347 27.9813 10.4295 31.2159C11.2889 34.3904 13.8475 35.9109 16.9151 36.1377C19.801 36.3478 21.6686 37.775 23.0768 40.0958C24.2537 42.0366 25.1296 44.1073 24.9842 46.4282C24.9511 46.9617 24.4884 47.732 24.0256 47.9321C20.1646 49.6127 16.3862 49.2993 12.8228 47.0651C12.198 46.6716 11.6658 45.9714 11.3286 45.2944C6.65773 35.9476 4.07272 26.0739 4 15.5467Z" fill="black"/>
<path d="M75 23.998C69.8977 24.0943 65.7145 20.647 64.7115 15.8129C64.6611 15.5707 64.6309 15.3219 64.5773 15.0797C64.1948 13.3809 63.3327 12.9529 61.6688 13.3909C58.2035 14.3033 54.7517 15.4148 51.2159 15.8992C47.9821 16.3438 44.6275 16.2907 41.3567 16.0518C38.4215 15.8361 37.7036 14.8773 37.2407 11.9974C36.8951 9.85076 36.8482 7.70411 37.5962 5.62051C38.1766 4.00472 38.6898 3.7227 40.2933 4.22701C44.6543 5.59396 48.9583 5.78972 53.497 4.72801C62.1888 2.69085 71.5246 8.69615 73.9567 17.661C74.5102 19.7014 74.6578 21.8514 75 23.9947V23.998Z" fill="black"/>
<path d="M49.1221 72.6464C50.305 70.8473 51.3765 69.1816 52.4972 67.5491C52.6742 67.2926 53.0674 67.1793 53.3754 67.0261C53.4737 66.9761 53.6179 67.0127 53.7391 67.0161C55.2432 67.0527 56.7505 67.0927 58.2545 67.1327C59.4801 68.935 60.7023 70.7374 61.9868 72.6297C61.0857 73.2094 60.3222 73.7591 59.5096 74.2122C58.461 74.7952 58.13 75.6414 58.3234 76.8074C59.3392 82.8642 60.3353 88.9242 61.338 94.9843C61.3839 95.2708 61.3872 95.5739 61.4887 95.8405C62.6979 99.0054 61.6493 101.534 59.5292 103.913C58.1726 105.435 57.0913 107.214 55.7969 109C53.5163 106.045 51.3143 103.223 49.1647 100.361C48.9615 100.091 48.9812 99.5684 49.0402 99.1887C50.2526 91.7327 51.465 84.2801 52.7364 76.8341C52.9428 75.6214 52.6021 74.8318 51.5961 74.2322C50.79 73.7524 50.0134 73.2194 49.1221 72.643V72.6464Z" fill="black"/>
<path d="M47.2788 48.0436C53.2202 50.7007 59.0711 50.0498 65.0729 48C65.7263 50.2545 66.3932 52.4687 66.9863 54.7064C67.06 54.9815 66.8221 55.4209 66.6043 55.6826C64.4998 58.2222 62.3853 60.7552 60.2306 63.2545C59.9726 63.5531 59.4733 63.6437 59.0812 63.8215C59.0108 63.8517 58.917 63.8282 58.8332 63.8249C56.9968 63.8114 54.9125 64.3348 53.3945 63.6336C51.8798 62.9325 50.9248 61.0068 49.7351 59.6112C48.6259 58.3061 47.4966 57.0179 46.4511 55.6658C46.1596 55.2901 45.9384 54.6795 46.0155 54.2333C46.3573 52.2204 46.8197 50.231 47.2755 48.047L47.2788 48.0436Z" fill="black"/>
<path d="M82 108.451C82.5948 107.881 83.2233 107.28 83.9526 106.58C85.2465 107.881 86.5302 109.181 87.8275 110.465C89.4574 112.081 90.1262 112.071 91.7931 110.426C96.5956 105.684 101.405 100.943 106.197 96.1912C106.52 95.8726 106.738 95.4513 107.061 95C107.884 95.8726 108.479 96.4998 109 97.0539C102.578 103.371 96.1184 109.726 89.7397 116C87.273 113.594 84.6617 111.046 82 108.451Z" fill="black"/>
</g>
<defs>
<clipPath id="clip0_759_2484">
<rect width="119" height="129" fill="white"/>
</clipPath>
</defs>
</svg>
