<svg width="178" height="25" viewBox="0 0 178 25" fill="CurrentColor" xmlns="http://www.w3.org/2000/svg">
<path d="M42.9589 12.0475C42.4842 12.302 41.9799 12.5283 41.4756 12.698C41.2679 12.7828 41.0899 12.8394 40.9119 12.9242C39.9329 13.3201 39.0726 13.9706 38.42 14.7907C37.975 15.4695 37.886 16.2896 38.2123 17.0249C38.5683 17.7319 39.31 18.1561 40.1109 18.0995C41.5646 18.0995 42.6622 17.3925 43.0479 16.3744C43.0182 16.0068 42.9886 15.2998 42.9886 14.8756C42.9589 14.0837 42.9589 12.8111 42.9589 12.0475ZM39.6066 19.5984C39.3693 19.5984 39.1023 19.5701 38.865 19.5701C37.5596 19.4287 36.4917 19.2308 35.8093 18.4389C35.0974 17.5622 34.8304 16.431 35.0677 15.3563C35.4237 13.7161 36.907 13.1787 38.1826 12.6414C38.8353 12.3586 39.5769 12.1041 40.1406 11.9061L40.8526 11.6516C41.4459 11.4819 42.0096 11.2274 42.5139 10.888C42.8106 10.6618 42.9292 10.0113 42.8699 9.64366C42.8106 9.13461 42.3359 8.03167 41.0899 8.03167C38.954 8.03167 38.4793 9.72851 38.1826 10.7183L35.839 9.81335C36.64 7.97511 38.7166 6.73077 41.0009 6.73077C41.7722 6.73077 42.5436 6.87217 43.2556 7.15498C45.1542 7.94683 46.0145 9.13461 45.8958 11.2557V15.8654C45.8958 16.5158 45.8958 18.0147 46.4298 18.3824C46.7265 18.5803 47.1122 18.5803 47.4088 18.3824V18.8066C47.1715 19.2308 46.7265 19.4853 46.2222 19.457C45.7772 19.457 45.3619 19.3439 44.9762 19.1742C44.3829 18.9197 43.8785 18.4955 43.5226 17.9864C42.5732 19.0045 41.1196 19.6267 39.6066 19.5984ZM147.68 19.5984C144.625 19.5984 142.934 18.2127 142.934 15.1584V6.92873H145.812V15.1301C145.812 17.336 147.206 17.8733 148.244 17.8733C149.49 17.8733 150.677 17.4208 151.211 16.2613V6.92873H154.088V19.3722H151.211V17.9581C150.291 18.8348 149.075 19.5984 147.68 19.5984ZM48.6548 19.3722V6.92873H51.5324V8.68213C52.6004 7.57919 53.876 6.84389 55.6263 6.87217V9.47398C55.211 9.33258 54.766 9.27602 54.321 9.27602C53.1047 9.27602 52.0961 9.38914 51.5028 10.3224V19.3722H48.6548ZM30.7068 19.3722V12.2455C30.7068 10.4355 30.4398 9.78507 30.0244 9.36086C29.6091 8.93665 28.9861 8.4276 28.2148 8.4276C26.6425 8.4276 25.4855 8.85181 24.9219 10.181V19.3722H22.0442V0.282805H24.9219V8.48416C25.8712 7.5509 27.1468 6.75905 28.6598 6.75905C30.1728 6.75905 31.4188 6.90045 32.2494 7.69231C33.1987 8.59728 33.5547 9.84163 33.5547 12.0192V19.3722H30.7068ZM57.1393 19.3439H60.0169V0.254525H57.1393V19.3439ZM68.2048 7.97511C65.5942 7.97511 64.1999 10.7183 64.1999 13.1222C64.1999 15.526 65.5645 18.2975 68.2048 18.2975C69.7178 18.2975 70.6374 17.1946 71.1418 16.4876C71.8537 15.4977 72.2097 14.31 72.2097 13.0939C72.1801 10.7183 70.8154 8.00339 68.2048 7.97511ZM68.2048 19.5984C64.0515 19.5984 61.2926 17.1663 61.2926 13.1505C61.2926 9.13461 64.0812 6.70249 68.2048 6.70249C72.3284 6.70249 75.117 9.10633 75.117 13.1505C75.117 17.1946 72.2691 19.5984 68.2048 19.5984ZM88.2295 19.5984C86.0935 19.5984 84.8475 18.6934 84.8475 16.6572V8.22964H82.3556C81.8216 8.22964 81.2876 8.22964 80.6053 8.25792V16.4027C80.6053 17.5905 80.9613 18.0147 81.7622 18.0147C82.5336 18.043 83.2752 17.845 83.9279 17.4774L84.3432 17.9864C83.4236 19.0894 82.4446 19.5984 81.1393 19.5984C79.033 19.5984 77.7573 18.6934 77.7573 16.6855V8.39932C76.452 8.45588 75.473 8.51244 75.2654 8.51244L74.316 8.59728L75.562 6.92873H77.7277V4.69457L80.6053 2.23416V6.92873H84.8475V4.69457L87.7251 2.23416V6.92873H91.7597L92.7091 8.45588L91.9674 8.39932C91.3444 8.37104 89.9798 8.31448 87.7251 8.2862V16.431C87.7251 17.6188 88.1108 18.0147 88.8821 18.043C89.6534 18.0713 90.3951 17.8733 91.0478 17.5057L91.4631 18.043C90.5434 19.0611 89.5645 19.5984 88.2295 19.5984ZM101.846 10.7183C101.461 8.51244 99.8883 7.94683 99.028 7.94683C97.1293 7.94683 96.091 9.07805 95.557 10.7183H101.846ZM98.9983 19.5984C94.9637 19.5984 92.2344 17.1097 92.2344 12.9525C92.2344 9.1629 95.0527 6.70249 98.9686 6.70249C102.202 6.70249 104.516 8.48416 104.783 11.5385L104.872 12.0192H95.1714C95.1714 12.5 95.1417 12.698 95.1417 12.9242C95.1417 15.8371 96.8327 17.9299 99.5323 17.9299C101.846 17.9299 103.033 17.0814 103.775 16.3744L104.338 16.8552C103.092 18.6369 101.431 19.5984 98.9983 19.5984ZM123.384 19.3722H126.261V0.282805H123.384V19.3722ZM131.69 17.336C132.551 17.7602 133.5 17.9864 134.479 18.0147C137.09 18.0147 138.662 16.0068 138.662 13.1787C138.662 10.3507 137.119 8.37104 134.509 8.37104C133.53 8.37104 132.551 8.62557 131.72 9.10633L131.69 17.336ZM135.072 19.5984C133.856 19.5701 132.669 19.1742 131.661 18.4955V19.3439H128.783V0.254525H131.661V7.86199C132.64 7.23982 133.826 6.73077 134.983 6.73077C138.84 6.73077 141.54 9.19118 141.54 13.1222C141.569 17.1946 138.959 19.5984 135.072 19.5984ZM155.779 6.98529L158.657 6.92873V8.71041C159.606 7.74887 160.882 6.90045 162.484 6.90045L163.938 9.95475C163.938 9.95475 162.603 9.27602 161.475 9.27602C160.259 9.27602 159.161 9.38914 158.687 10.3507V19.3722L155.809 19.4287L155.779 6.98529ZM117.985 19.3439H120.684V8.00339H117.985V19.3439ZM117.866 4.92081L119.349 2.74321L120.833 4.92081L119.349 7.07014L117.866 4.92081ZM110.182 19.3722V1.78167C108.669 1.78167 106.296 1.83824 102.855 1.95136L101.461 2.00792L103.003 0.282805H119.646L119.824 0.367647L121.04 2.00792L119.794 1.92308C119.053 1.86652 116.323 1.72511 113.149 1.72511H113.09V19.3722H110.182ZM166.281 25L166.696 24.3213C166.993 23.8688 168.743 20.9842 170.108 18.2692C169.782 17.5339 164.59 6.87217 164.59 6.87217H167.735L171.532 15.7805L175.596 6.90045H177.999L177.584 7.72059L169.396 25H166.281ZM11.0084 19.9095C7.80448 19.9095 4.8082 18.9762 2.76123 16.7986C-1.18437 12.6697 -0.858041 6.30656 3.44355 2.54525C3.59188 2.40385 3.74022 2.29072 3.88855 2.1776C5.90585 0.593891 8.45714 0 11.1271 0C14.4497 0 17.5646 1.07466 19.8193 3.67647L17.5053 5.34502C16.289 3.67647 14.7167 2.20588 13.1444 1.78167C12.4917 1.58371 11.7797 1.49887 11.0974 1.47059C9.85145 1.49887 8.60547 1.80995 7.50782 2.40385C5.37186 3.53507 4.00721 5.96719 3.53255 8.48416C3.11723 11.1143 3.88855 13.7726 5.69818 15.8088C7.06283 17.336 9.02079 18.3541 11.1864 18.3541C11.6314 18.3541 12.0764 18.3258 12.5214 18.2409C14.776 17.845 16.734 16.0633 18.0393 13.8575L20.8576 14.8756C18.8996 17.9864 15.0134 19.9095 11.0084 19.9095Z"/>
</svg>
