<svg width="171" height="20" viewBox="0 0 171 20" fill="CurrentColor" xmlns="http://www.w3.org/2000/svg">

<path d="M0 0H3.23339C4.89073 0 5.91871 0.306587 5.91871 2.29803V7.36915C5.91871 8.92142 5.36801 9.47383 4.02273 9.53183V9.58431C5.22902 9.64508 6 10.0566 6 11.4432V17.7075C6 19.6962 4.97203 20 3.23601 20H0V0ZM2.8951 8.83856C3.71329 8.83856 4.18531 8.58997 4.18531 7.39953V2.90844C4.18531 1.74562 3.60315 1.55227 2.71154 1.55227H1.73339V8.83856H2.8951ZM2.79021 18.4505C3.68444 18.4505 4.26661 18.2599 4.26661 17.0943V11.6089C4.26661 10.6394 3.71329 10.3881 2.8951 10.3881H1.73077V18.4505H2.78759H2.79021Z" />
<path d="M17 3.32202C17 1.38802 17.7036 0 20.0026 0C22.3015 0 23 1.39074 23 3.32202V16.6753C23 18.6147 22.3015 20 20.0026 20C17.7036 20 17 18.6147 17 16.6753V3.32202ZM18.7113 16.6209C18.7113 17.7102 18.9149 18.4734 20.0026 18.4734C21.0902 18.4734 21.2938 17.7102 21.2938 16.6209V3.37906C21.2938 2.29254 21.0851 1.52655 20.0026 1.52655C18.9201 1.52655 18.7113 2.28983 18.7113 3.37906V16.6209Z" />
<path d="M34 0H37.231C38.895 0 39.9186 0.306587 39.9186 2.29803V7.36915C39.9186 8.92142 39.3648 9.47383 38.021 9.53183V9.58431C39.231 9.64508 40 10.0566 40 11.4432V17.7075C40 19.6962 38.9738 20 37.231 20H34V0ZM36.8924 8.83856C37.706 8.83856 38.1785 8.58997 38.1785 7.39953V2.90844C38.1785 1.74562 37.5958 1.55227 36.706 1.55227H35.7323V8.83856H36.8924ZM36.7848 18.4505C37.6772 18.4505 38.2625 18.2599 38.2625 17.0943V11.6089C38.2625 10.6394 37.7034 10.3881 36.8924 10.3881H35.7323V18.4505H36.7848Z" />
<path d="M51 0H54.2372C55.8938 0 56.9214 0.306587 56.9214 2.29803V7.36915C56.9214 8.92142 56.363 9.47383 55.0288 9.53183V9.58431C56.2398 9.64508 57 10.0566 57 11.4432V17.7075C57 19.6962 55.9699 20 54.2372 20H51V0ZM53.9017 8.83856C54.7169 8.83856 55.1861 8.58997 55.1861 7.39953V2.90844C55.1861 1.74562 54.6042 1.55227 53.713 1.55227H52.7431V8.83856H53.9017ZM53.7942 18.4505C54.6881 18.4505 55.2674 18.2599 55.2674 17.0943V11.6089C55.2674 10.6394 54.7143 10.3881 53.9017 10.3881H52.7431V18.4505H53.7969H53.7942Z" />
<path d="M71 0H69V20H71V0Z" />
<path d="M93 0H96.231C97.8924 0 98.9213 0.306587 98.9213 2.29803V7.36915C98.9213 8.92142 98.3674 9.47383 97.0262 9.53183V9.58431C98.2388 9.64508 99 10.0566 99 11.4432V17.7075C99 19.6962 97.9737 20 96.231 20H93V0ZM95.8976 8.83856C96.7139 8.83856 97.1811 8.58997 97.1811 7.39953V2.90844C97.1811 1.74562 96.6037 1.55227 95.706 1.55227H94.7375V8.83856H95.8976ZM95.7848 18.4505C96.6824 18.4505 97.2625 18.2599 97.2625 17.0943V11.6089C97.2625 10.6394 96.7113 10.3881 95.8976 10.3881H94.7375V18.4505H95.7848Z" />
<path d="M114.261 11.6089C114.261 10.6422 113.716 10.3881 112.9 10.3881H111.736V20H110V0H113.236C114.893 0 115.927 0.306587 115.927 2.29803V7.36915C115.927 8.92142 115.368 9.44621 114.028 9.53183V9.58431C115.263 9.66441 116 10.0566 116 11.4459V20H114.264V11.6061L114.261 11.6089ZM112.9 8.83856C113.716 8.83856 114.183 8.58997 114.183 7.39953V2.90844C114.183 1.74838 113.606 1.55503 112.714 1.55503H111.736V8.83856H112.9Z" />
<path d="M127 3.32202C127 1.38802 127.697 0 129.997 0C132.298 0 133 1.39074 133 3.32202V16.6753C133 18.6147 132.3 20 129.997 20C127.694 20 127 18.6147 127 16.6753V3.32202ZM128.709 16.6209C128.709 17.7102 128.913 18.4734 130 18.4734C131.087 18.4734 131.293 17.7102 131.293 16.6209V3.37906C131.293 2.29254 131.09 1.52655 130 1.52655C128.91 1.52655 128.709 2.28983 128.709 3.37906V16.6209Z" />
<path d="M153.221 0H155L152.907 20H150.451L149.027 2.22069H148.97L147.538 20H145.087L143 0H144.774L146.314 17.9008H146.371L147.826 0H150.169L151.737 17.9008H151.797L153.221 0Z" />
<path d="M169.286 0H171V20H168.229L165.77 2.22069H165.717V20H164V0H166.839L169.227 17.1275H169.286V0Z" />

</svg>


