<svg width="131" height="20" viewBox="0 0 131 20" fill="CurrentColor" xmlns="http://www.w3.org/2000/svg">
<path d="M126 1H131C130.447 1.39776 130.115 1.88392 130.115 2.54896V18.4637C130.115 19.1287 130.461 19.6022 131 20H126C126.544 19.6022 126.876 19.1161 126.876 18.4637V2.54896C126.876 1.88392 126.555 1.39776 126 1Z" />
<path d="M19.1089 7.3588C18.3684 5.77326 17.5536 4.20826 16.1861 3.0725C14.7277 1.84843 12.8837 1.11111 10.9777 1.11111C5.90759 1.11111 3.63655 5.67262 3.63655 10.1561C3.63655 14.6396 5.80652 18.8766 10.7013 18.8766C12.696 18.8766 14.6432 18.014 15.8725 16.4531V12.9554C15.8725 12.0025 15.559 11.3904 14.8164 10.8297H20C19.4472 11.4541 19.1089 12.0908 19.1089 12.9554V16.4531C16.7389 18.6506 13.7871 20 10.5136 20C4.72979 20.0021 0 15.7671 0 9.87061C0 3.97412 4.66584 0 10.3775 0C13.9274 0 16.8028 1.29801 19.111 3.9084V7.3588" />
<path d="M32.0021 1H37.0513C36.3602 1.48893 36.1277 2.0418 36.1277 2.85668V14.2422C36.1277 17.3656 39.9183 18.8963 42.6956 18.8963C45.473 18.8963 48.9778 17.3532 48.9778 14.3041V2.85668C48.9778 2.09131 48.7837 1.56526 48.2504 1H51C50.4432 1.55288 50.2342 2.10369 50.2342 2.85668V14.3041C50.2342 18.4198 45.2149 20 41.7336 20C38.2523 20 32.9215 18.4693 32.9215 14.2422V2.85668C32.9215 2.07894 32.5973 1.5013 32 1" />
<path d="M82 7.43075C81.3436 5.78725 80.5778 4.34765 79.2362 3.15724C77.7934 1.88034 76.0348 1.07919 74.0863 1.07919C69.0664 1.07919 66.4883 5.46185 66.4883 10.0113C66.4883 14.5608 69.1655 18.9064 74.1234 18.9064C77.8161 18.9064 80.4519 16.3135 82 13.1953V16.5771C79.7006 18.8446 76.7386 20 73.4959 20C67.4956 20 63 16.126 63 9.94954C63 3.77304 67.3202 0 73.207 0C76.4744 0 79.6366 1.12656 82 3.36938V7.43075Z" />
<path d="M114 7.43075C113.348 5.78725 112.582 4.34765 111.238 3.15724C109.791 1.88034 108.035 1.07919 106.088 1.07919C101.064 1.07919 98.5048 5.46185 98.5048 10.0113C98.5048 14.5608 101.165 18.9064 106.128 18.9064C109.818 18.9064 112.468 16.3135 114 13.1953V16.5771C111.703 18.8446 108.751 20 105.5 20C99.4977 20 95 16.126 95 9.94954C95 3.77304 99.3202 0 105.211 0C108.474 0 111.641 1.12656 114 3.36938V7.43075Z" />
</svg>
