<svg width="135" height="33" viewBox="0 0 135 33" fill="CurrentColor" xmlns="http://www.w3.org/2000/svg">
<path d="M52.8074 32.8758H53.7132V31.0774H55.3955C56.1824 31.0774 57.4834 31.0774 57.4834 29.6656C57.4834 28.2538 56.1964 28.2325 55.3955 28.2325H52.8039V32.8758H52.8074ZM53.7167 30.2793V28.9952H55.5948C56.1159 28.9952 56.5706 29.0377 56.5706 29.6301C56.5706 30.2225 56.1194 30.2793 55.5948 30.2793H53.7167ZM58.5641 32.8794H59.5294L60.0225 31.8223H62.7016L63.1877 32.8794H64.1425L61.8937 28.2183H60.8514L58.5711 32.8794H58.5641ZM60.4003 31.0455L61.3725 28.9278L62.3378 31.0455H60.3968H60.4003ZM66.4053 32.9007H67.3111V31.0419H68.7556L70.1126 32.8865H71.2247L69.7978 30.9816C70.151 30.9816 70.4903 30.8326 70.7351 30.5737C70.9799 30.3147 71.1093 29.9636 71.0953 29.6053C71.0953 28.4666 70.3084 28.2148 69.2067 28.2148H66.4228L66.4053 32.9007ZM67.3111 30.3005V28.9597H69.0703C69.8153 28.9597 70.193 29.0661 70.193 29.6195C70.193 30.1728 69.8118 30.2793 69.0738 30.2793L67.3111 30.3005ZM73.9177 28.2183H74.8236V32.8758H73.9177V28.2183ZM81.2448 29.6301C81.0979 29.2257 80.7237 28.8604 79.622 28.8604C79.003 28.8604 78.3874 29.02 78.3874 29.4457C78.3874 29.6443 78.5063 29.8536 79.4297 29.9636L80.5244 30.1409C81.5666 30.297 82.1786 30.7049 82.1786 31.4818C82.1786 32.5743 81.1364 33 79.8983 33C77.9048 33 77.4187 32.0068 77.3102 31.6521L78.1811 31.3789C78.356 31.7336 78.7022 32.2125 79.9193 32.2125C80.6677 32.2125 81.2763 31.9642 81.2763 31.5634C81.2763 31.2619 80.9301 31.0703 80.269 30.9816L79.1569 30.8291C78.0902 30.6872 77.4956 30.2119 77.4956 29.5024C77.4956 28.1084 79.2968 28.1084 79.6535 28.1084C81.6575 28.1084 81.9933 29.0306 82.1122 29.3499L81.2483 29.6301H81.2448ZM116.104 20.8826C116.485 24.1213 118.163 23.6424 118.247 23.9226C118.247 23.9226 111.777 23.9226 111.777 23.9013C111.742 23.7843 113.634 23.8659 113.257 21.0245L111.571 8.39632C111.501 8.06288 111.501 7.69042 111.316 7.76137C111.183 7.82522 105.611 21.4112 105.611 21.4112C105.531 21.6346 105.391 21.7623 105.209 21.4466C105.076 21.2161 99.9909 9.94647 99.9909 9.94647C99.7391 9.38246 99.2949 8.48146 99.225 8.32538C99.0851 8.0416 98.8788 8.00613 98.9067 8.96034L97.5847 21.7659C97.2734 23.9936 99.3579 23.8268 99.3229 23.9652H94.7588C94.6994 23.8588 96.2977 24.0645 96.6509 21.7198L98.1618 7.58755C98.0499 4.84553 96.1438 4.99452 96.1438 4.76749H100.963L101.033 4.92003L106.153 16.1648C106.223 16.3067 106.269 16.3776 106.307 16.4486C106.458 16.7714 106.44 16.9948 106.619 16.5692L111.634 4.7604H116.271C116.306 4.92712 114.411 4.84199 114.411 7.18671L116.107 20.8897L116.104 20.8826ZM10.3978 23.2806C14.8605 23.2203 14.6506 19.8043 14.9479 19.8326L14.182 23.9368H0.374222C0.374222 23.8233 3.02526 23.7807 3.06373 21.8829V7.54853C3.06373 5.20735 0.570077 5.1435 0.681994 4.98033H8.47073C8.30635 5.15769 5.77422 5.16833 5.77422 7.44921V22.3299C5.77422 23.4224 6.86541 23.2486 7.77824 23.2841H10.3943M39.8005 21.9645C40.0698 24.327 41.8535 23.7275 41.8535 23.9545H36.8592C36.8592 23.724 38.8597 23.9545 38.8282 21.8155V7.40664C38.8632 4.92003 36.7053 4.91648 36.6563 4.72493H41.6716L52.0589 17.6866L52.031 7.16543C51.961 4.62561 50.0304 4.80297 49.999 4.67172H55.2416C55.2206 4.79942 53.1536 4.84908 53.0662 7.16898L53.0452 23.465C53.0452 23.465 53.2306 24.6995 52.4821 23.7275C52.1569 23.3054 39.9964 7.78974 39.9964 7.78974C39.8845 7.6585 39.832 7.78975 39.8215 8.18704V21.7517L39.8005 21.9645ZM22.957 14.5934C22.4534 14.5934 22.5233 14.2918 22.7122 13.8165C22.7122 13.8165 24.4154 9.54208 24.6253 9.02064C24.8876 8.35021 25.1639 8.4921 25.3562 9.06321L27.0769 13.8945C27.2448 14.4302 27.4512 14.6005 26.8776 14.6005H22.9465M33.0645 21.5211L26.0907 4.83134C25.5835 4.26733 25.3947 4.91293 25.3947 4.91293C24.6987 6.51629 18.3194 21.9965 18.3194 21.9965C17.4486 24.0609 16.3189 23.8162 16.3189 23.9581H20.8411C20.8411 23.7275 18.4069 24.1071 19.2427 21.9574L21.656 15.9945C21.9113 15.6185 21.9358 15.5192 22.5268 15.5192H27.049C27.5981 15.5192 27.626 15.5192 27.8639 16.0726L30.1477 21.7162C30.8157 23.9723 28.7837 23.8339 28.8117 23.9865H35.2294C35.2924 23.7914 34.2571 24.437 33.089 21.5637M84.4589 1.44728L76.8066 3.80974L84.4589 0L92.1358 3.80974L84.4589 1.44728ZM84.4589 23.2273H84.389C80.7237 23.2273 78.3035 19.7475 78.3035 14.3309C78.3035 8.12319 80.7797 5.12222 84.4519 5.12222C88.1242 5.12222 90.6144 8.12673 90.6144 14.3309C90.6144 19.7191 88.0892 23.1848 84.4519 23.2203M84.4939 4.39149C81.8848 4.34892 79.3737 5.37407 77.5201 7.23992C75.6699 9.10223 74.6382 11.6456 74.6592 14.2918C74.6592 19.3928 78.4854 23.9439 84.438 23.9439C90.3905 23.9439 94.3496 19.407 94.3496 14.2989C94.3706 11.6527 93.3354 9.10577 91.4782 7.24347C89.6246 5.38117 87.1065 4.35601 84.4939 4.40213M66.2689 23.1883C70.5882 23.1174 72.5293 20.0951 72.9105 19.9568C73.0993 19.8965 70.8016 23.9191 66.2165 23.9191C55.9236 23.9191 56.0949 14.5189 56.0949 14.5189C56.4132 7.9139 61.7188 3.98001 66.8005 4.51919C67.8113 4.61851 68.8045 4.84908 69.7558 5.20381C70.2245 5.35634 71.494 6.0516 71.9942 5.8565C72.3404 5.71461 72.6062 4.97323 72.6902 4.92357L72.7391 10.0742C72.3929 10.0742 71.2422 5.12222 66.3389 5.12222C62.3238 5.12222 59.2776 9.75492 59.3405 14.2954C59.4455 21.8652 64.6881 23.2309 66.2689 23.2025M124.994 14.4728V21.6772C124.994 23.1103 124.878 23.2841 125.805 23.2947H130.905C132.15 23.2167 132.947 22.8975 133.461 22.4824C134.633 21.546 134.36 20.1448 134.594 20.0951L134.475 23.9403H120.16C120.105 23.8055 122.294 24.1745 122.294 21.021V7.74363C122.294 4.56885 120.276 5.06192 120.3 4.81716H134.489L134.612 8.60916C134.325 8.59142 135.077 5.63657 130.856 5.37762H126.148C125.333 5.37762 125.001 5.37762 125.001 6.9526V11.0461L125.022 11.9542C125.022 12.6601 125.022 12.7204 126.008 12.7204H130.565C132.86 12.7204 132.548 10.6382 132.748 10.6382V15.5759C132.545 15.5759 132.846 13.2844 130.66 13.3554H126.054C125.046 13.3376 125.011 13.7065 125.011 14.4124L124.994 14.4692V14.4728Z"/>
</svg>
