<svg width="74" height="29" viewBox="0 0 74 29" fill="CurrentColor" xmlns="http://www.w3.org/2000/svg">
<path fill-rule="evenodd" clip-rule="evenodd" d="M55.4068 17.0032C54.5264 16.0287 53.4133 15.5989 52.0701 15.7128C50.7695 15.842 49.7728 16.5582 49.1237 17.9201C48.5316 19.1529 48.3144 20.6581 48.5316 22.4368C48.6906 24.2003 49.2542 25.6057 50.1644 26.68C51.1315 27.813 52.2303 28.2862 53.4572 28.0713C54.7423 27.8271 55.681 27.1391 56.3027 25.992C56.9091 24.8167 57.1263 23.2963 56.9815 21.3614C56.8083 19.4253 56.3027 17.9917 55.4068 17.0032ZM46.9427 17.6489C47.4624 16.9609 48.1127 16.3868 48.8923 15.9289C49.5853 15.5273 50.2795 15.269 51.0009 15.1399L53.6732 14.9826C54.6415 15.026 55.5362 15.2127 56.3455 15.5708C58.2951 16.4314 59.5232 18.0082 59.9848 20.3012C60.4619 22.6235 60.0572 24.5878 58.7863 26.1798C57.703 27.5277 56.2731 28.3883 54.4682 28.7605C52.5756 29.1761 50.8134 29.047 49.2246 28.4012C47.1587 27.57 45.902 25.9215 45.4974 23.5123C45.1367 21.2322 45.6137 19.2973 46.9415 17.6489M39.2866 6.20741C38.7526 6.20741 38.3183 6.39409 37.9576 6.75219C37.5672 7.11028 37.3797 7.56935 37.4082 8.10004C37.3797 8.60138 37.5672 9.03227 37.9576 9.39036C38.3183 9.74846 38.7514 9.93514 39.2866 9.93514C39.7921 9.93514 40.2395 9.74846 40.6014 9.39036C40.9621 9.03227 41.165 8.60138 41.165 8.10004C41.165 7.56935 40.9633 7.11146 40.6014 6.75219C40.2407 6.39409 39.7921 6.20741 39.2866 6.20741ZM69.4742 17.9929C68.767 18.7244 68.29 19.5838 68.0301 20.617V26.7105C68.0301 27.2553 68.2176 27.6428 68.608 27.8858L69.4897 28.0431L70.414 28.1441C70.63 28.1723 70.7178 28.2157 70.7178 28.3308L70.6739 28.4317L70.4283 28.5034H62.701C62.4696 28.5034 62.3403 28.4317 62.3403 28.3167L62.5562 28.1453L63.8568 28.0443C64.3623 27.9586 64.6803 27.786 64.8535 27.5289L65.0707 26.8843V18.2817L64.9259 17.6513L64.6803 17.508C64.6079 17.4364 64.4928 17.393 64.3195 17.3648C64.1036 17.3507 63.8425 17.393 63.5684 17.508L62.8315 17.7088L62.4127 17.6078C62.3403 17.5068 62.3688 17.4364 62.4708 17.393L63.0914 17.1347C64.507 16.719 65.6486 16.2881 66.4424 15.8443L67.4249 15.3136L67.8581 15.3418L68.0313 15.6999V18.8547C69.1147 17.1053 69.9809 16.0298 70.573 15.6717C70.9338 15.4569 71.2815 15.2843 71.5413 15.2127L72.0468 15.1692C72.3648 15.1411 72.7256 15.2408 73.1302 15.4991C73.6784 15.815 73.968 16.287 73.9964 16.8893C74.0249 17.3906 73.8813 17.7781 73.5633 18.0798C73.275 18.324 72.9854 18.3956 72.7256 18.324C72.4799 18.2806 72.2925 18.1808 72.1619 18.0375L71.7573 17.535C71.4393 17.076 71.1367 16.9327 70.7748 17.0619C70.3559 17.1769 69.9228 17.4928 69.4754 17.9941M35.3874 28.3167C35.3589 28.1453 35.5037 28.0736 35.8205 28.0736L36.8315 28.0443C37.3809 27.9727 37.7132 27.786 37.8425 27.4995L38.03 26.4675V18.1373C38.03 17.8215 37.9149 17.5785 37.6977 17.4352L36.9466 17.3636L35.9356 17.636L35.3862 17.6078C35.3138 17.4364 35.531 17.2779 36.0365 17.1347C37.235 16.8188 38.2899 16.4173 39.1846 15.916C39.734 15.6001 40.1232 15.4287 40.2964 15.3571L40.7295 15.3136C40.8743 15.3418 40.9467 15.6295 40.9467 16.1449V26.6401C40.9467 27.1414 41.0618 27.5007 41.279 27.7155C41.5388 27.9738 42.1452 28.103 43.0838 28.103C43.4161 28.103 43.5893 28.1746 43.6178 28.3319C43.6178 28.4611 43.5169 28.5034 43.3437 28.5034H35.6449C35.4716 28.5034 35.385 28.4317 35.385 28.3167M10.8042 1.07547L10.7033 1.6496V26.896C10.7033 27.1825 10.7615 27.3833 10.8766 27.4549L11.4544 27.5406H13.3613L17.7815 27.3833C18.9657 27.2541 19.9767 27.0674 20.7718 26.8092C21.5656 26.5227 22.3168 26.107 22.967 25.6045C23.5449 25.1314 24.137 24.4574 24.7873 23.5968C25.8707 22.1926 26.6503 20.3998 27.1273 18.2066C27.4169 16.773 27.5604 15.3817 27.5604 14.0492C27.5604 12.8727 27.3872 11.6117 27.0265 10.2498C26.521 8.28555 25.7556 6.56551 24.6722 5.10259C22.5766 2.26482 19.139 0.860607 14.3866 0.860607H11.4544C11.1222 0.832429 10.9062 0.904049 10.8042 1.07547ZM3.00452 0.688016L1.60312 0.616397L1.02524 0.501336L0.910138 0.286478C0.910138 0.0857085 1.05491 0 1.34325 0H15.8307C22.6194 0 27.386 2.04996 30.1591 6.16514C31.748 8.54502 32.5431 11.3699 32.5431 14.6385C32.5431 16.3445 32.2832 17.9929 31.748 19.585C31.1417 21.2628 30.3039 22.7398 29.2205 24.0583C28.0363 25.4484 26.591 26.5238 24.9309 27.3128C23.1545 28.1159 21.161 28.5315 18.9218 28.5315H0.447356C0.143581 28.5315 0 28.4317 0 28.2592C0 28.0725 0.217151 27.9727 0.620602 27.9727L4.1591 27.7578C4.70851 27.6862 5.09772 27.5289 5.28639 27.3128L5.64712 26.8115C5.77765 26.4675 5.85004 25.9509 5.86428 25.2488V2.50903C5.86428 1.62024 5.35878 1.07547 4.37626 0.860607L3.00452 0.68919V0.688016Z" />
</svg>
