<svg width="130" height="20" viewBox="0 0 130 20" fill="CurrentColor" xmlns="http://www.w3.org/2000/svg">
<path d="M56.0082 11.0298H52.5956L56.0082 3.51137L56.0247 3.47952L59.4209 11.0298H56.0082ZM56.0082 0H53.5409L45 19H49.0223L50.9294 14.7899H61.0871L62.9942 19H67L58.4756 0H56.0082Z" />
<path d="M99.1601 11.3873H107.922V7.6426H99.1601V3.5416H108.977V0H95V19H110V15.4584H99.1601V11.3873Z" />
<path d="M120.144 15.4584V0H116V19H130V15.4883L120.144 15.4584Z" />
<path d="M37.6437 6.85155H28.3542V0H24V19H28.3542V10.9223H37.6437V19H42V0.0318491H37.6437V6.85155Z" />
<path d="M84.4136 11.8232L75.8496 0.0298617L74.3488 0H71V19H74.3488V5.12626L84.4136 19H88V0.0298617H84.4136V11.8232Z" />
<path d="M14.8504 13.428L14.3436 14.0244L13.8063 14.5583L13.1409 14.9995L12.4448 15.3762L11.7 15.6442L10.892 15.8014L10.0698 15.8638L9.5 15.8477L8.91388 15.755L8.36033 15.6281L7.82102 15.4246L7.28374 15.1728L6.80752 14.8746L6.33333 14.5281L5.90596 14.1513L5.5091 13.7101L5.1611 13.2548L4.8599 12.7672L4.60754 12.2474L4.43252 11.7135L4.29006 11.1474L4.21069 10.5812L4.18016 9.99899L4.21069 9.41876L4.29006 8.85262L4.43252 8.30261L4.60754 7.78281L4.8599 7.26302L5.1611 6.76136L5.5091 6.28992L5.90596 5.86481L6.33333 5.47195L6.80752 5.14153L7.28374 4.84336L7.82102 4.60764L8.36033 4.40214L8.91388 4.27722L9.5 4.18253L10.0698 4.1503L10.6702 4.18253L11.2421 4.27722L11.7956 4.40214L12.3492 4.60764L12.8397 4.84336L13.3464 5.14153L13.8226 5.47195L14.25 5.86481L14.7242 6.41483L15.121 6.98096L18.8575 5.09318L18.5075 4.52705L18.0964 3.97703L17.6853 3.45925L17.2111 2.93946L16.45 2.26453L15.6746 1.6984L14.8198 1.19472L13.9162 0.769618L13.031 0.455324L12.048 0.203485L11.0671 0.0463383L10.0698 0L9.04006 0.0463383L8.04284 0.219603L7.09244 0.455324L6.15831 0.801854L5.28727 1.22696L4.43252 1.71452L3.65713 2.29475L2.96112 2.93946L2.31191 3.66274L1.72579 4.43437L1.20276 5.25234L0.807948 6.11665L0.45994 7.04342L0.205548 8.00242L0.0468081 8.99365L0 9.99899L0.0468081 11.0063L0.205548 11.9653L0.427378 12.9082L0.759105 13.837L1.18648 14.7013L1.67898 15.5495L2.27935 16.3373L2.96112 17.0605L3.6897 17.7355L4.48136 18.3338L5.33612 18.8355L6.20716 19.2445L7.14128 19.5749L8.08965 19.8267L9.07262 19.9537L10.0698 20L11.0671 19.9537L12.048 19.8267L13.031 19.5749L13.9162 19.2445L14.8198 18.8355L15.6746 18.3338L16.45 17.7355L17.2111 17.0605L17.7321 16.5246L18.2083 15.9283L18.6357 15.2977L19 14.655L15.2777 12.7672L14.8504 13.428Z" />
</svg>
