
<svg version="1.0" xmlns="http://www.w3.org/2000/svg"
 width="134.000000pt" height="32.000000pt" viewBox="0 0 134.000000 32.000000"
 preserveAspectRatio="xMidYMid meet">

<g transform="translate(0.000000,32.000000) scale(0.100000,-0.100000)"
fill="#000000" stroke="none">
<path d="M812 311 c-9 -5 -2 -8 20 -9 23 -1 28 2 18 8 -18 12 -22 12 -38 1z"/>
<path d="M837 270 c73 -23 64 -170 -11 -170 -13 0 -30 8 -39 18 -22 24 -23
114 -2 132 19 16 14 23 -9 14 -27 -10 -49 -62 -42 -99 8 -42 35 -65 83 -72 85
-11 137 87 81 151 -14 15 -38 28 -58 31 l-35 5 32 -10z"/>
<path d="M25 180 l0 -90 58 0 c31 0 57 3 57 8 0 4 -21 6 -46 4 l-46 -4 4 86
c2 71 0 86 -12 86 -12 0 -15 -17 -15 -90z"/>
<path d="M236 254 c-3 -8 1 -22 9 -30 21 -22 19 -44 -6 -44 -16 0 -19 4 -14
23 5 20 5 20 -9 -3 -21 -35 -21 -35 21 -35 36 0 39 -2 47 -37 7 -27 15 -38 28
-38 17 0 17 2 2 37 -8 21 -25 62 -37 90 -23 56 -31 63 -41 37z"/>
<path d="M375 180 c0 -109 13 -120 17 -15 l3 75 59 -75 c32 -41 60 -75 62 -75
2 0 4 41 4 90 0 50 -3 90 -7 90 -5 0 -7 -26 -5 -57 l3 -58 -53 58 c-75 81 -83
78 -83 -33z"/>
<path d="M589 257 c-23 -17 -39 -52 -39 -82 0 -40 50 -85 92 -84 30 2 30 2 6
6 -61 9 -88 95 -47 147 21 27 15 34 -12 13z"/>
<path d="M680 266 c0 -2 7 -9 15 -16 9 -7 15 -8 15 -2 0 5 -7 12 -15 16 -8 3
-15 4 -15 2z"/>
<path d="M961 233 c0 -26 3 -32 7 -20 6 14 14 5 36 -40 28 -57 28 -57 42 -33
14 27 19 54 5 31 -6 -9 -16 3 -34 43 -31 67 -57 76 -56 19z"/>
<path d="M1076 234 c-9 -20 -15 -39 -12 -41 2 -2 7 5 11 16 12 39 23 21 30
-49 6 -58 10 -70 25 -70 16 0 17 5 10 33 -5 17 -11 58 -15 90 -8 67 -23 74
-49 21z"/>
<path d="M1195 180 l0 -90 63 0 c34 0 62 3 62 8 0 4 -23 5 -51 3 l-50 -3 3 43
c3 43 4 44 43 50 l40 5 -40 5 c-38 4 -40 6 -40 37 0 22 -5 32 -15 32 -12 0
-15 -16 -15 -90z"/>
<path d="M1305 260 c3 -5 8 -10 11 -10 2 0 4 5 4 10 0 6 -5 10 -11 10 -5 0 -7
-4 -4 -10z"/>
<path d="M948 135 c-2 -25 0 -45 4 -45 5 0 8 20 8 45 0 25 -2 45 -4 45 -2 0
-6 -20 -8 -45z"/>
<path d="M182 125 c-15 -32 -15 -35 0 -35 6 0 8 3 5 6 -3 4 -2 15 4 26 6 11 9
22 6 24 -2 2 -9 -7 -15 -21z"/>
<path d="M535 41 l20 -8 -20 -6 c-18 -5 -18 -6 -1 -4 29 3 32 27 4 26 -21 0
-22 -1 -3 -8z"/>
<path d="M586 34 c-9 -24 -7 -31 4 -14 9 13 11 13 20 0 11 -17 13 -10 4 14 -8
20 -20 20 -28 0z"/>
<path d="M650 32 c0 -11 7 -18 20 -18 25 0 27 16 3 17 -15 0 -15 2 2 9 19 8
19 9 -2 9 -16 1 -23 -5 -23 -17z"/>
<path d="M722 30 c0 -14 2 -19 5 -12 2 6 2 18 0 25 -3 6 -5 1 -5 -13z"/>
<path d="M760 41 c0 -5 9 -7 20 -4 11 3 20 7 20 9 0 2 -9 4 -20 4 -11 0 -20
-4 -20 -9z"/>
<path d="M786 18 c5 -8 1 -9 -12 -4 -14 5 -16 4 -7 -5 6 -6 16 -8 22 -5 14 9
14 26 0 26 -5 0 -7 -5 -3 -12z"/>
</g>
</svg>


