<?xml version="1.0" standalone="no"?>
<!DOCTYPE svg PUBLIC "-//W3C//DTD SVG 20010904//EN"
 "http://www.w3.org/TR/2001/REC-SVG-20010904/DTD/svg10.dtd">
<svg version="1.0" xmlns="http://www.w3.org/2000/svg"
 width="190.000000pt" height="34.000000pt" viewBox="0 0 190.000000 34.000000"
 preserveAspectRatio="xMidYMid meet">

<g transform="translate(0.000000,34.000000) scale(0.100000,-0.100000)"
fill="#000000" stroke="none">
<path d="M84 296 c-41 -18 -64 -52 -64 -94 0 -68 44 -112 113 -112 34 0 97 33
97 50 0 16 -26 12 -41 -6 -37 -44 -103 -32 -126 24 -37 88 48 168 120 112 18
-14 28 -17 33 -9 7 12 -14 29 -51 41 -31 10 -47 8 -81 -6z"/>
<path d="M250 194 c0 -80 3 -105 13 -102 7 3 13 27 15 62 3 56 4 57 30 54 25
-3 27 -6 30 -61 2 -42 7 -57 17 -57 11 0 15 13 15 53 0 68 -16 91 -58 85 -31
-4 -32 -4 -32 34 0 27 -4 38 -15 38 -12 0 -15 -18 -15 -106z"/>
<path d="M620 194 c0 -80 3 -105 13 -102 8 3 13 36 15 106 2 86 0 102 -13 102
-12 0 -15 -17 -15 -106z"/>
<path d="M1127 293 l42 -4 3 -96 c2 -66 7 -98 16 -101 9 -3 12 21 12 97 l0
100 43 4 c23 2 -3 4 -58 4 -55 0 -81 -2 -58 -4z"/>
<path d="M1312 198 c2 -70 7 -103 16 -106 9 -3 12 22 12 102 0 89 -3 106 -15
106 -13 0 -15 -16 -13 -102z"/>
<path d="M1370 197 l0 -104 46 -1 c56 0 84 23 84 71 0 44 -29 71 -70 65 -29
-4 -30 -3 -30 34 0 27 -4 38 -15 38 -12 0 -15 -18 -15 -103z m81 13 c13 -7 19
-21 19 -43 0 -39 -15 -57 -47 -57 -21 0 -23 5 -23 49 0 43 5 54 28 60 2 1 12
-4 23 -9z"/>
<path d="M923 269 c-7 -7 -13 -19 -13 -26 0 -7 -11 -13 -25 -13 -18 0 -25 5
-25 20 0 11 -4 20 -10 20 -5 0 -10 -4 -10 -10 0 -5 -10 -19 -22 -31 -18 -17
-19 -21 -5 -16 15 6 17 0 17 -47 0 -61 16 -82 52 -70 l23 7 -23 8 c-19 7 -22
16 -22 59 0 47 2 50 25 50 24 0 25 -3 25 -60 0 -64 12 -80 48 -65 16 8 16 8 0
12 -14 4 -18 15 -18 58 0 48 3 54 23 58 22 4 22 4 0 6 -15 1 -23 8 -25 27 -2
20 -5 23 -15 13z"/>
<path d="M1260 255 c0 -8 5 -15 10 -15 6 0 10 7 10 15 0 8 -4 15 -10 15 -5 0
-10 -7 -10 -15z"/>
<path d="M413 223 c-13 -5 -18 -33 -7 -33 4 0 12 7 19 17 7 9 19 14 29 10 26
-10 19 -27 -19 -42 -44 -19 -61 -48 -39 -69 17 -18 42 -20 63 -7 9 6 22 6 31
1 15 -8 16 -2 12 48 -2 31 -9 63 -14 70 -10 12 -51 15 -75 5z m55 -80 c-4 -35
-48 -48 -48 -14 0 18 23 40 43 41 5 0 7 -12 5 -27z"/>
<path d="M530 158 c0 -51 3 -69 13 -66 7 3 13 26 15 56 3 48 9 57 35 53 4 0 7
5 7 12 0 8 -13 13 -35 14 l-35 1 0 -70z"/>
<path d="M680 210 c-27 -27 -25 -66 5 -95 28 -29 61 -32 93 -9 28 20 31 83 4
107 -25 23 -78 21 -102 -3z m88 -22 c17 -36 -1 -78 -34 -78 -40 0 -59 64 -28
95 22 22 46 15 62 -17z"/>
<path d="M1007 212 c-55 -61 24 -157 89 -107 18 14 17 14 -13 9 -39 -8 -63 9
-63 42 0 22 4 24 51 24 51 0 51 0 37 23 -20 30 -78 35 -101 9z m73 -7 c11 -13
7 -15 -25 -15 -32 0 -36 2 -25 15 7 8 18 15 25 15 7 0 18 -7 25 -15z"/>
<path d="M1520 171 c0 -69 9 -79 68 -78 l42 2 0 67 c0 53 -3 68 -15 68 -10 0
-15 -15 -17 -57 -3 -50 -6 -58 -23 -58 -17 0 -20 8 -23 58 -2 42 -7 57 -17 57
-12 0 -15 -14 -15 -59z"/>
<path d="M1652 163 c2 -42 8 -68 16 -71 8 -3 12 12 12 51 0 41 4 56 16 61 9 3
20 3 26 0 6 -4 9 -1 6 7 -2 7 -21 14 -42 16 l-37 2 3 -66z"/>
<path d="M1750 226 c0 -2 12 -29 26 -61 26 -55 26 -59 10 -92 -19 -41 -20 -43
-3 -43 7 0 29 38 50 84 50 113 51 116 39 116 -6 0 -21 -21 -33 -47 l-21 -48
-20 48 c-11 26 -27 47 -34 47 -8 0 -14 -2 -14 -4z"/>
<path d="M1260 155 c0 -37 4 -65 10 -65 6 0 10 28 10 65 0 37 -4 65 -10 65 -6
0 -10 -28 -10 -65z"/>
</g>
</svg>
