<svg width="183" height="103" viewBox="0 0 183 103" fill="none" xmlns="http://www.w3.org/2000/svg">
<g clip-path="url(#clip0_759_1783)">
<path d="M183 57H29.5995C29.5995 52.9494 29.622 49.0751 29.592 45.2045C29.5657 41.8102 30.035 42.5754 26.7758 41.9415C18.3124 40.2988 9.83395 38.7498 1.35925 37.1558C0.901163 37.0695 0.450582 36.9308 0 36.5557C17.0433 35.0743 34.0827 33.5965 51.126 32.1151C51.1335 32.0063 51.1448 31.8975 51.1523 31.7888C34.2217 29.3772 17.2873 26.9693 0.35671 24.5614C0.349201 24.4414 0.341691 24.3214 0.330427 24.2014C17.2535 22.5174 34.1766 20.8334 51.0997 19.1494C51.111 19.0256 51.1185 18.9019 51.1298 18.7781C34.5258 16.614 17.9219 14.45 1.31795 12.2859C1.31795 12.1471 1.32546 12.0046 1.32546 11.8658C4.73486 11.4645 8.14051 11.0519 11.5537 10.6581C17.0883 10.0243 22.623 9.3867 28.1614 8.79036C29.1564 8.6816 29.5657 8.33655 29.6633 7.26389C30.0801 2.75197 32.7273 0.272853 37.2481 0.0140646C37.6649 -0.00843875 38.0854 0.00281292 38.506 0.00281292C65.7849 0.00281292 93.0639 -0.000937639 120.343 0.0178151C121.533 0.0178151 122.761 0.0703229 123.906 0.359116C127.139 1.17674 129.174 4.03091 129.302 7.77021C129.358 9.3792 129.309 10.9919 129.309 12.9047C130.105 12.9047 130.793 12.9047 131.48 12.9047C135.794 12.9272 140.112 12.9047 144.426 12.9947C147.126 13.051 149.375 14.2549 151.279 16.134C160.741 25.4841 170.256 34.7817 179.613 44.2331C181.1 45.7371 181.889 47.9349 182.996 49.8102V56.9963L183 57ZM153.277 45.5271C157.471 45.5271 161.665 45.5721 165.859 45.4895C166.708 45.4745 167.549 44.9907 168.394 44.7207C167.969 43.9931 167.684 43.1229 167.098 42.5604C160.888 36.5782 154.504 30.7686 148.448 24.6365C145.996 22.1536 143.491 21.0284 140.067 21.4035C138.528 21.5723 137.987 22.0598 137.998 23.5863C138.051 30.1685 138.058 36.7545 137.994 43.3367C137.979 44.9457 138.479 45.5871 140.157 45.5533C144.528 45.467 148.906 45.5233 153.28 45.5233L153.277 45.5271Z" fill="black"/>
<path d="M183 78.9479C181.524 83.5229 178.228 85.224 173.625 84.9767C171.722 84.8755 169.812 84.958 168.31 84.958C166.805 81.8255 165.73 78.7605 163.995 76.1264C157.381 66.0846 142.066 64.7507 133.571 73.2787C130.758 76.1039 128.747 79.3563 127.96 83.2793C127.702 84.572 127.181 84.9992 125.829 84.9917C113.574 84.9355 101.315 84.9392 89.0562 84.9879C87.8052 84.9917 87.3258 84.6357 87.0187 83.3955C85.0448 75.4557 80.0371 70.4048 72.1716 68.2054C62.1525 65.4027 50.6502 72.0123 47.9759 82.0803C47.7325 82.9983 47.489 83.9163 47.2605 84.7818C43.5225 84.7818 39.8707 84.9954 36.2526 84.7219C32.8292 84.4634 30.2186 81.6906 30.11 78.2959C29.9302 72.7991 30.0276 67.2949 30.0164 61.7944C30.0164 61.6332 30.1362 61.4721 30.2711 61.1199H32.6907C81.9585 61.1199 131.226 61.1199 180.494 61.1162C181.326 61.1162 182.161 61.0412 182.993 61V78.9516L183 78.9479Z" fill="black"/>
<path d="M82.9997 87.4612C83.0528 95.9532 76.2006 102.869 67.6106 102.998C59.2217 103.127 52.1191 96.1426 52.0014 87.6468C51.8838 79.17 58.9941 72.0038 67.5195 72C76.0033 72 82.9428 78.9276 82.9997 87.4612ZM67.5689 95.2297C71.8411 95.207 75.2786 91.7413 75.2596 87.4688C75.2406 83.2229 71.7235 79.7496 67.474 79.7799C63.2283 79.8102 59.715 83.3516 59.7605 87.5635C59.806 91.8246 63.2966 95.2487 67.5689 95.2297Z" fill="black"/>
<path d="M132.004 87.5075C132.011 79.0136 138.935 72.061 147.445 72.0004C155.939 71.9398 163.064 79.0818 163 87.5946C162.935 96.0809 155.879 103.075 147.452 102.999C138.897 102.924 131.996 96.0051 132 87.5113L132.004 87.5075ZM147.475 95.2288C151.728 95.2402 155.256 91.7714 155.283 87.5491C155.309 83.3647 151.755 79.8013 147.536 79.7823C143.306 79.7634 139.762 83.2662 139.747 87.4885C139.732 91.7298 143.211 95.2175 147.475 95.2326V95.2288Z" fill="black"/>
</g>
<defs>
<clipPath id="clip0_759_1783">
<rect width="183" height="103" fill="white"/>
</clipPath>
</defs>
</svg>
